<?xml version="1.0" encoding="UTF-8"?>
<svg width="732px" height="240px" viewBox="0 0 732 240" version="1.1" xmlns="http://www.w3.org/2000/svg" xmlns:xlink="http://www.w3.org/1999/xlink">
    <title>logo_text_light</title>
    <g id="logo_text_light" stroke="none" stroke-width="1" fill="none" fill-rule="evenodd">
        <path d="M287.182959,1.05486355 C294.869221,3.85069423 300,11.2658616 300,19.5784638 L300,201.311554 C300,222.405026 283.210678,239.504663 262.5,239.504663 C255.096563,239.504663 247.858775,237.272733 241.698743,233.090141 L114.962639,147.037773 C97.7303136,135.33722 74.4477133,140.079806 62.9594961,157.630635 C61.2587477,160.22891 59.8772906,163.029814 58.8460604,165.970627 L37.5,226.8443 C33.9126258,237.074602 22.8616885,242.406008 12.8170407,238.752329 C5.13077915,235.956498 0,228.541331 0,220.228728 L0,38.4956381 C0,17.4021668 16.7893219,0.30252962 37.5,0.30252962 C44.903437,0.30252962 52.1412255,2.53445955 58.3012574,6.71705095 L185.037361,92.7694197 C202.269686,104.469972 225.552287,99.7273864 237.040504,82.1765573 C238.741252,79.5782826 240.122709,76.7773779 241.15394,73.836565 L262.5,12.9628923 C266.087374,2.73259036 277.138312,-2.59881572 287.182959,1.05486355 Z" id="Path" fill="#0A0C03"></path>
        <g id="ounce" transform="translate(311.14, 164.8)" fill="#0A0C03" fill-rule="nonzero">
            <path d="M37.17,75.6 C29.2833333,75.6 22.65375,74.3458333 17.28125,71.8375 C11.90875,69.3291667 7.79916667,65.7066667 4.9525,60.97 C2.10583333,56.2333333 0.501666667,50.6158333 0.14,44.1175 C0.0466666667,42.2508333 0,40.1304167 0,37.75625 C0,35.3820833 0.0466666667,33.2908333 0.14,31.4825 C0.501666667,24.8908333 2.17875,19.25 5.17125,14.56 C8.16375,9.87 12.34625,6.27083333 17.71875,3.7625 C23.09125,1.25416667 29.575,0 37.17,0 C44.765,0 51.24875,1.25416667 56.62125,3.7625 C61.99375,6.27083333 66.17625,9.87 69.16875,14.56 C72.16125,19.25 73.8383333,24.8908333 74.2,31.4825 C74.3516667,33.2908333 74.4275,35.3820833 74.4275,37.75625 C74.4275,40.1304167 74.3516667,42.2508333 74.2,44.1175 C73.8383333,50.6158333 72.2341667,56.2333333 69.3875,60.97 C66.5408333,65.7066667 62.43125,69.3291667 57.05875,71.8375 C51.68625,74.3458333 45.0566667,75.6 37.17,75.6 Z M37.17,58.555 C41.3116667,58.555 44.3566667,57.28625 46.305,54.74875 C48.2533333,52.21125 49.3383333,48.4341667 49.56,43.4175 C49.6533333,42.0175 49.7,40.145 49.7,37.8 C49.7,35.455 49.6533333,33.5825 49.56,32.1825 C49.3383333,27.2475 48.2533333,23.4908333 46.305,20.9125 C44.3566667,18.3341667 41.3116667,17.045 37.17,17.045 C33.0866667,17.045 30.05625,18.3341667 28.07875,20.9125 C26.10125,23.4908333 25.0016667,27.2475 24.78,32.1825 C24.6866667,33.5825 24.64,35.455 24.64,37.8 C24.64,40.145 24.6866667,42.0175 24.78,43.4175 C25.0016667,48.4341667 26.10125,52.21125 28.07875,54.74875 C30.05625,57.28625 33.0866667,58.555 37.17,58.555 Z" id="Shape"></path>
            <path d="M114.87,75.6 C109.573333,75.6 104.848333,74.38375 100.695,71.95125 C96.5416667,69.51875 93.2866667,65.9516667 90.93,61.25 C88.5733333,56.5483333 87.395,50.7908333 87.395,43.9775 L87.395,4.9175 C87.395,3.92583333 87.7333333,3.09166667 88.41,2.415 C89.0866667,1.73833333 89.9208333,1.4 90.9125,1.4 L108.5175,1.4 C109.509167,1.4 110.343333,1.73833333 111.02,2.415 C111.696667,3.09166667 112.035,3.92583333 112.035,4.9175 L112.035,43.1025 C112.035,52.2958333 116.100833,56.8925 124.2325,56.8925 C128.1175,56.8925 131.191667,55.6879167 133.455,53.27875 C135.718333,50.8695833 136.85,47.4775 136.85,43.1025 L136.85,4.9175 C136.85,3.92583333 137.188333,3.09166667 137.865,2.415 C138.541667,1.73833333 139.375833,1.4 140.3675,1.4 L157.885,1.4 C158.876667,1.4 159.710833,1.73833333 160.3875,2.415 C161.064167,3.09166667 161.4025,3.92583333 161.4025,4.9175 L161.4025,70.6825 C161.4025,71.6741667 161.064167,72.5083333 160.3875,73.185 C159.710833,73.8616667 158.876667,74.2 157.885,74.2 L141.68,74.2 C140.688333,74.2 139.854167,73.8616667 139.1775,73.185 C138.500833,72.5083333 138.1625,71.6741667 138.1625,70.6825 L138.1625,65.3275 C135.759167,68.7108333 132.617917,71.26875 128.73875,73.00125 C124.859583,74.73375 120.236667,75.6 114.87,75.6 Z" id="Path"></path>
            <path d="M181.3,74.2 C180.308333,74.2 179.474167,73.8616667 178.7975,73.185 C178.120833,72.5083333 177.7825,71.6741667 177.7825,70.6825 L177.7825,4.9175 C177.7825,3.92583333 178.120833,3.09166667 178.7975,2.415 C179.474167,1.73833333 180.308333,1.4 181.3,1.4 L197.505,1.4 C198.496667,1.4 199.330833,1.73833333 200.0075,2.415 C200.684167,3.09166667 201.0225,3.92583333 201.0225,4.9175 L201.0225,10.2725 C203.425833,7.35583333 206.584583,4.91458333 210.49875,2.94875 C214.412917,0.982916667 219.035833,0 224.3675,0 C229.7225,0 234.479583,1.21625 238.63875,3.64875 C242.797917,6.08125 246.073333,9.63958333 248.465,14.32375 C250.856667,19.0079167 252.0525,24.7741667 252.0525,31.6225 L252.0525,70.6825 C252.0525,71.6741667 251.714167,72.5083333 251.0375,73.185 C250.360833,73.8616667 249.526667,74.2 248.535,74.2 L230.93,74.2 C229.938333,74.2 229.104167,73.8616667 228.4275,73.185 C227.750833,72.5083333 227.4125,71.6741667 227.4125,70.6825 L227.4125,32.4975 C227.4125,28.1225 226.350833,24.7304167 224.2275,22.32125 C222.104167,19.9120833 219.03,18.7075 215.005,18.7075 C211.12,18.7075 208.037083,19.9120833 205.75625,22.32125 C203.475417,24.7304167 202.335,28.1225 202.335,32.4975 L202.335,70.6825 C202.335,71.6741667 201.996667,72.5083333 201.32,73.185 C200.643333,73.8616667 199.809167,74.2 198.8175,74.2 L181.3,74.2 Z" id="Path"></path>
            <path d="M301.2625,75.6 C294.379167,75.6 288.271667,74.3458333 282.94,71.8375 C277.608333,69.3291667 273.387917,65.6775 270.27875,60.8825 C267.169583,56.0875 265.463333,50.2891667 265.16,43.4875 C265.066667,42.0291667 265.02,40.1625 265.02,37.8875 C265.02,35.6125 265.066667,33.7166667 265.16,32.2 C265.463333,25.3633333 267.155,19.5416667 270.235,14.735 C273.315,9.92833333 277.535417,6.27083333 282.89625,3.7625 C288.257083,1.25416667 294.379167,0 301.2625,0 C307.725833,0 313.25,0.91 317.835,2.73 C322.42,4.55 326.15625,6.81916667 329.04375,9.5375 C331.93125,12.2558333 334.08375,15.0383333 335.50125,17.885 C336.91875,20.7316667 337.674167,23.2108333 337.7675,25.3225 C337.860833,26.3141667 337.537083,27.1483333 336.79625,27.825 C336.055417,28.5016667 335.206667,28.84 334.25,28.84 L316.4525,28.84 C315.460833,28.84 314.696667,28.6008333 314.16,28.1225 C313.623333,27.6441667 313.121667,26.9325 312.655,25.9875 C311.511667,23.1758333 310.0825,21.1429167 308.3675,19.88875 C306.6525,18.6345833 304.43,18.0075 301.7,18.0075 C297.978333,18.0075 295.105417,19.2295833 293.08125,21.67375 C291.057083,24.1179167 289.963333,27.86 289.8,32.9 C289.671667,36.6333333 289.671667,39.9291667 289.8,42.7875 C290.021667,47.9441667 291.13,51.7008333 293.125,54.0575 C295.12,56.4141667 297.978333,57.5925 301.7,57.5925 C304.605,57.5925 306.885833,56.9654167 308.5425,55.71125 C310.199167,54.4570833 311.57,52.4241667 312.655,49.6125 C313.063333,48.6675 313.550417,47.9558333 314.11625,47.4775 C314.682083,46.9991667 315.460833,46.76 316.4525,46.76 L334.25,46.76 C335.206667,46.76 336.055417,47.0983333 336.79625,47.775 C337.537083,48.4516667 337.860833,49.2858333 337.7675,50.2775 C337.674167,51.8058333 337.210417,53.6404167 336.37625,55.78125 C335.542083,57.9220833 334.238333,60.1475 332.465,62.4575 C330.691667,64.7675 328.393333,66.9170833 325.57,68.90625 C322.746667,70.8954167 319.319583,72.5083333 315.28875,73.745 C311.257917,74.9816667 306.5825,75.6 301.2625,75.6 Z" id="Path"></path>
            <path d="M383.9675,75.6 C372.930833,75.6 364.154583,72.6075 357.63875,66.6225 C351.122917,60.6375 347.725,51.7591667 347.445,39.9875 C347.41,39.3458333 347.3925,38.5291667 347.3925,37.5375 C347.3925,36.5458333 347.41,35.7583333 347.445,35.175 C347.736667,27.7783333 349.390417,21.4491667 352.40625,16.1875 C355.422083,10.9258333 359.613333,6.9125 364.98,4.1475 C370.346667,1.3825 376.646667,0 383.88,0 C392.046667,0 398.825,1.63625 404.215,4.90875 C409.605,8.18125 413.653333,12.62625 416.36,18.24375 C419.066667,23.86125 420.42,30.2283333 420.42,37.345 L420.42,40.7575 C420.42,41.7491667 420.072917,42.5833333 419.37875,43.26 C418.684583,43.9366667 417.841667,44.275 416.85,44.275 L372.085,44.275 C372.085,44.3333333 372.085,44.4616667 372.085,44.66 C372.085,44.8583333 372.085,45.0508333 372.085,45.2375 C372.155,47.9791667 372.624583,50.4525 373.49375,52.6575 C374.362917,54.8625 375.6725,56.6154167 377.4225,57.91625 C379.1725,59.2170833 381.295833,59.8675 383.7925,59.8675 C385.6475,59.8675 387.205,59.5816667 388.465,59.01 C389.725,58.4383333 390.78375,57.75 391.64125,56.945 C392.49875,56.14 393.160833,55.4516667 393.6275,54.88 C394.4675,53.9 395.15,53.2933333 395.675,53.06 C396.2,52.8266667 397.005,52.71 398.09,52.71 L415.4675,52.71 C416.365833,52.71 417.118333,52.98125 417.725,53.52375 C418.331667,54.06625 418.588333,54.7866667 418.495,55.685 C418.401667,57.2833333 417.62,59.2141667 416.15,61.4775 C414.68,63.7408333 412.51875,65.9516667 409.66625,68.11 C406.81375,70.2683333 403.235,72.05625 398.93,73.47375 C394.625,74.89125 389.6375,75.6 383.9675,75.6 Z M372.085,30.3975 L395.78,30.3975 L395.78,30.1 C395.78,27.0666667 395.31625,24.4416667 394.38875,22.225 C393.46125,20.0083333 392.105,18.2991667 390.32,17.0975 C388.535,15.8958333 386.388333,15.295 383.88,15.295 C381.371667,15.295 379.23375,15.8958333 377.46625,17.0975 C375.69875,18.2991667 374.36,20.0083333 373.45,22.225 C372.54,24.4416667 372.085,27.0666667 372.085,30.1 L372.085,30.3975 Z" id="Shape"></path>
        </g>
    </g>
</svg>