<?xml version="1.0" encoding="UTF-8"?>
<svg width="682px" height="240px" viewBox="0 0 682 240" version="1.1" xmlns="http://www.w3.org/2000/svg" xmlns:xlink="http://www.w3.org/1999/xlink">
    <title>logo_text_light</title>
    <defs>
        <linearGradient x1="100%" y1="0%" x2="0%" y2="100%" id="linearGradient-1">
            <stop stop-color="#32C5FF" offset="0%"></stop>
            <stop stop-color="#B620E0" offset="51.2583893%"></stop>
            <stop stop-color="#F7B500" offset="100%"></stop>
        </linearGradient>
    </defs>
    <g id="logo_text_light" stroke="none" stroke-width="1" fill="none" fill-rule="evenodd">
        <g id="Logo">
            <polygon id="Path" fill="#000000" points="100 0 100 80 80 80 80 240 0 240 0 0"></polygon>
            <rect id="Rectangle" fill="url(#linearGradient-1)" x="100" y="100" width="40" height="40"></rect>
            <polygon id="Path" fill="#000000" points="240 240 140 240 140 160 160 160 160 0 240 0"></polygon>
        </g>
        <g id="OUNCE" transform="translate(255.4684, 145.0728)" fill="#000000" fill-rule="nonzero">
            <path d="M41.418125,94.6071875 C33.2222917,94.6071875 26.0126563,92.6967708 19.7892188,88.8759375 C13.5657813,85.0551042 8.71171875,79.5878125 5.22703125,72.4740625 C1.74234375,65.3603125 0,56.8305208 0,46.8846875 C0,36.9388542 1.74234375,28.4790625 5.22703125,21.5053125 C8.71171875,14.5315625 13.5657813,9.20390625 19.7892188,5.52234375 C26.0126563,1.84078125 33.2222917,0 41.418125,0 C49.6533333,0 56.8826563,1.84078125 63.1060938,5.52234375 C69.3295313,9.20390625 74.1835938,14.5315625 77.6682813,21.5053125 C81.1529687,28.4790625 82.8953125,36.9388542 82.8953125,46.8846875 C82.8953125,56.8305208 81.1529687,65.3603125 77.6682813,72.4740625 C74.1835938,79.5878125 69.3295313,85.0551042 63.1060938,88.8759375 C56.8826563,92.6967708 49.6533333,94.6071875 41.418125,94.6071875 Z M41.418125,76.7834375 C45.591875,76.7834375 49.1935938,75.5635417 52.2232813,73.12375 C55.2529688,70.6839583 57.5910417,67.2211458 59.2375,62.7353125 C60.8839583,58.2494792 61.7071875,52.9659375 61.7071875,46.8846875 C61.7071875,40.8019792 60.8839583,35.5982813 59.2375,31.2735938 C57.5910417,26.9489063 55.2529688,23.6264583 52.2232813,21.30625 C49.1935938,18.9860417 45.591875,17.8259375 41.418125,17.8259375 C37.2852083,17.8259375 33.6936979,18.9860417 30.6435937,21.30625 C27.5934896,23.6264583 25.2452083,26.9489063 23.59875,31.2735938 C21.9522917,35.5982813 21.1290625,40.8019792 21.1290625,46.8846875 C21.1290625,52.9659375 21.9522917,58.2494792 23.59875,62.7353125 C25.2452083,67.2211458 27.5934896,70.6839583 30.6435937,73.12375 C33.6936979,75.5635417 37.2852083,76.7834375 41.418125,76.7834375 Z" id="Shape"></path>
            <path d="M136.005795,94.6071875 C130.111212,94.6071875 124.896941,93.7821354 120.362983,92.1320313 C115.829024,90.4819271 112.019129,87.9189063 108.933295,84.4429688 C105.847462,80.9670313 103.514129,76.5242188 101.933295,71.1145313 C100.352462,65.7048438 99.5620452,59.2615625 99.5620452,51.7846875 L99.5620452,1.68 L120.192358,1.68 L120.192358,53.9065625 C120.192358,59.5619792 120.805587,64.0605729 122.032045,67.4023438 C123.258504,70.7441146 125.049701,73.1430729 127.405639,74.5992188 C129.761576,76.0553646 132.628295,76.7834375 136.005795,76.7834375 C139.425587,76.7834375 142.336785,76.0553646 144.739389,74.5992188 C147.141993,73.1430729 148.990066,70.7441146 150.283608,67.4023438 C151.577149,64.0605729 152.22392,59.5619792 152.22392,53.9065625 L152.22392,1.68 L172.075483,1.68 L172.075483,51.7846875 C172.075483,59.2615625 171.308399,65.7048438 169.774233,71.1145313 C168.240066,76.5242188 165.956316,80.9670313 162.922983,84.4429688 C159.889649,87.9189063 156.119129,90.4819271 151.61142,92.1320313 C147.103712,93.7821354 141.901837,94.6071875 136.005795,94.6071875 Z" id="Path"></path>
            <path d="M193.093508,92.9271875 L193.093508,1.68 L214.714758,1.68 L238.077258,46.59375 C239.704758,49.67375 241.249498,52.9739583 242.711477,56.494375 C244.173456,60.0147917 245.604446,63.56875 247.004446,67.15625 L247.564446,67.15625 C247.086112,62.2095833 246.535227,56.7915104 245.911789,50.9020313 C245.288352,45.0125521 244.976633,39.3910417 244.976633,34.0375 L244.976633,1.68 L264.672883,1.68 L264.672883,92.9271875 L243.051633,92.9271875 L219.686946,48.015625 C218.111946,44.935625 216.559914,41.6222917 215.030852,38.075625 C213.501789,34.5289583 212.037258,30.9873958 210.637258,27.4509375 L210.077258,27.4509375 C210.637258,32.4209375 211.228977,37.8244271 211.852414,43.6614063 C212.475852,49.4983854 212.787571,55.1344792 212.787571,60.5696875 L212.787571,92.9271875 L193.093508,92.9271875 Z" id="Path"></path>
            <path d="M324.871931,94.6071875 C317.072765,94.6071875 309.91891,92.8524479 303.410369,89.3429688 C296.901827,85.8334896 291.699587,80.5947917 287.80365,73.626875 C283.907712,66.6589583 281.959744,58.05625 281.959744,47.81875 C281.959744,40.2485417 283.098337,33.5001042 285.375525,27.5734375 C287.652712,21.6467708 290.806358,16.6301042 294.836462,12.5234375 C298.866567,8.41677083 303.466879,5.30286458 308.6374,3.18171875 C313.807921,1.06057292 319.260265,0 324.994431,0 C330.938598,0 336.242192,1.15645833 340.905212,3.469375 C345.568233,5.78229167 349.424431,8.57791667 352.473806,11.85625 L341.599744,24.3840625 C339.31891,22.2184375 336.885681,20.5840104 334.300056,19.4807813 C331.714431,18.3775521 328.778806,17.8259375 325.493181,17.8259375 C321.424431,17.8259375 317.688546,19.0225 314.285525,21.415625 C310.882504,23.80875 308.165629,27.1909896 306.1349,31.5623437 C304.104171,35.9336979 303.088806,41.1344792 303.088806,47.1646875 C303.088806,53.4326042 304.057504,58.7759375 305.9949,63.1946875 C307.932296,67.6134375 310.651723,70.9829167 314.153181,73.303125 C317.65464,75.6233333 321.70516,76.7834375 326.304744,76.7834375 C329.86016,76.7834375 333.046983,76.0553646 335.865212,74.5992188 C338.683442,73.1430729 341.143285,71.343125 343.244744,69.199375 L353.622244,81.4471875 C349.732869,85.8455208 345.389223,89.1384375 340.591306,91.3259375 C335.79339,93.5134375 330.553598,94.6071875 324.871931,94.6071875 Z" id="Path"></path>
            <polygon id="Path" points="367.684317 92.9271875 367.684317 1.68 424.859005 1.68 424.859005 18.983125 388.31463 18.983125 388.31463 37.3034375 419.425255 37.3034375 419.425255 54.604375 388.31463 54.604375 388.31463 75.62625 426.259005 75.62625 426.259005 92.9271875"></polygon>
        </g>
    </g>
</svg>